<svg version="1.1" id="Capa_1" xmlns="http://www.w3.org/2000/svg" x="0" y="0" viewBox="0 0 86 66" xml:space="preserve"><style type="text/css">.st0{fill:#121e33}</style><title>Andares Patria</title><g id="A.-Los-Robles" transform="translate(-755 -4190)"><g id="Andares-02" transform="translate(755.626 4179.254)"><g id="Andares-Patria" transform="translate(0 11.559)"><path id="Fill-1" class="st0" d="M16 62.2c0 .1 0 .2-.1.3-.4.2-.9.3-1.5.3-.4 0-.8-.1-1.2-.2s-.6-.3-.9-.5c-.2-.2-.4-.5-.5-.8s-.2-.6-.2-1c0-.5.1-1 .2-1.3.2-.4.4-.7.6-.9.3-.2.6-.4.9-.5.4-.1.7-.2 1.1-.2h.4c.1 0 .3 0 .4.1.1 0 .3.1.4.1.1 0 .2.1.3.1 0 .1-.1.2-.1.4 0 .1 0 .3-.1.4h-.1c-.2-.2-.4-.4-.6-.5h-.4c-.2 0-.4 0-.6.1-.2.1-.4.2-.5.4-.2.2-.3.4-.4.7-.1.3-.2.6-.2 1s.1.7.2 1c.1.3.2.5.4.7s.4.3.6.4c.2.1.4.1.6.1h.4c.1 0 .2-.1.4-.1.1 0 .2-.1.3-.2.1-.1.2-.1.3-.2l.1.1c-.1 0-.1.1-.2.2"/><path id="Fill-3" class="st0" d="M19.2 59.8c-.1-.2-.3-.4-.5-.4s-.4.1-.5.4c-.1.3-.2.7-.2 1.3v.6c0 .2.1.3.1.5.1.1.1.2.2.3s.2.1.3.1c.5 0 .7-.6.7-1.7 0-.6 0-.9-.1-1.1m-2.2.4c.1-.2.2-.5.4-.6.2-.2.4-.3.6-.4s.4-.1.7-.1c.6 0 1 .2 1.3.5s.5.8.5 1.3c0 .3 0 .6-.1.8s-.2.4-.4.6c-.2.2-.4.3-.6.4-.2.1-.5.1-.7.1s-.4 0-.7-.1l-.6-.3c-.2-.1-.3-.3-.4-.6-.1-.2-.2-.5-.2-.8 0-.3.1-.6.2-.8"/><path id="Fill-5" class="st0" d="M22.3 60.1c.1-.3.3-.6.5-.8s.4-.2.7-.2h.2V60.1l-.1.1s-.1-.1-.2-.1h-.2c-.2 0-.4.1-.5.2-.1.1-.2.3-.2.5v2h-1V62v-1.2-.9-.8h1.2l-.4 1z"/><g id="Group-9" transform="translate(23.961 59.23)"><path id="Fill-7" class="st0" d="M2.5.6C2.4.4 2.2.3 2 .3c-.1 0-.2 0-.3.1l-.2.2c-.1.2-.1.3-.1.5s-.1.4-.1.7c0 .5.1.8.2 1s.3.3.5.3.4-.1.5-.3.2-.6.2-1.1S2.6.8 2.5.6m-2.2.6V0h1.1v.6c-.1-.2.1-.4.3-.6s.4-.2.7-.2c.2 0 .4 0 .5.1s.3.2.4.4c.1.1.2.3.3.6s.1.5.1.8c0 .4 0 .7-.1.9l-.3.6c-.1.1-.3.2-.5.3-.1.1-.3.1-.5.1s-.4 0-.6-.1c-.1-.1-.3-.2-.4-.4v2.3h-1v-.6-.6-.6-1.1-1.3"/></g><path id="Fill-10" class="st0" d="M30.7 59.8c-.1-.2-.3-.4-.5-.4s-.4.1-.5.4c-.1.3-.2.7-.2 1.3v.6c0 .2.1.3.1.5.1.1.1.2.2.3s.2.1.3.1c.5 0 .7-.6.7-1.7.1-.6 0-.9-.1-1.1m-2.2.4c.1-.2.2-.5.4-.6.2-.2.4-.3.6-.4.2-.1.4-.1.7-.1.6 0 1 .2 1.3.5s.5.8.5 1.3c0 .3 0 .6-.1.8s-.2.4-.4.6c-.2.2-.4.3-.6.4-.2.1-.5.1-.7.1s-.4 0-.7-.1l-.6-.3c-.2-.1-.3-.3-.4-.6-.1-.2-.2-.5-.2-.8.1-.3.1-.6.2-.8"/><path id="Fill-12" class="st0" d="M33.8 60.1c.1-.3.3-.6.5-.8s.4-.2.7-.2h.2V60.1l-.2.1s-.1-.1-.2-.1h-.2c-.2 0-.4.1-.5.2-.1.1-.2.3-.2.5v2h-1V62v-1.2-.9-.8h1.2l-.3 1z"/><path id="Fill-14" class="st0" d="M37.5 61.1v-.3c-.1.1-.2.1-.3.1s-.2.1-.3.1c-.1.1-.2.1-.2.2-.1.1-.1.2-.1.4s0 .3.1.4c.1.1.2.1.3.1.2 0 .3-.1.4-.2.1-.1.2-.3.2-.6-.1.1-.1-.1-.1-.2m-1.1-1.9c.2-.1.5-.1.7-.1s.4 0 .5.1c.2 0 .3.1.4.2.1.1.2.2.3.4s.1.3.1.6v2c0 .1 0 .1.1.2l.1.1h.2v.2c-.1.1-.3.1-.4.1h-.3c-.2 0-.3 0-.4-.1-.1-.1-.2-.2-.3-.4-.1.2-.2.3-.4.4-.2.1-.3.1-.6.1-.2 0-.3 0-.5-.1-.1 0-.2-.1-.3-.2-.1-.1-.1-.2-.2-.3 0-.1-.1-.2-.1-.4s0-.3.1-.4c.1-.1.1-.2.2-.3.1-.1.2-.2.3-.2.1-.1.3-.1.5-.1.2-.1.4-.1.5-.1s.2-.1.3-.1.1-.1.1-.1v-.2c0-.2-.1-.3-.2-.5-.1-.1-.3-.2-.5-.2h-.3c-.1 0-.2.1-.3.1s-.2.1-.2.1c-.1 0-.1.1-.2.2h-.1l-.1-.4c.5-.4.8-.5 1-.6"/><path id="Fill-16" class="st0" d="M41.5 59.4v.2h-.7V61.9c0 .2 0 .3.1.4 0 .1.1.1.1.2h.4s.1 0 .1-.1v.3c-.1 0-.2.1-.4.1-.1 0-.3.1-.4.1-.6 0-.9-.4-.9-1.1v-.5-.6-.6-.5h-.5v-.2-.2h.5v-.4-.5c.2-.1.3-.1.5-.2s.3-.2.5-.2l.1.1v1.3l.6.1c0-.1 0-.1 0 0"/><path id="Fill-18" class="st0" d="M42.3 60v-.8h1.1v3.7h-1v-.8-1.2c-.1-.4-.1-.7-.1-.9m.1-2.7c.1-.1.3-.2.4-.2.2 0 .3.1.4.2.1.1.2.3.2.4 0 .2-.1.3-.2.4-.1.1-.3.2-.4.2-.2 0-.3-.1-.4-.2-.1-.1-.2-.3-.2-.4s.1-.2.2-.4"/><path id="Fill-20" class="st0" d="M46.4 60.5c.1-.4.3-.9.4-1.3H47.4c-.1.2-.2.4-.3.7s-.2.5-.4.8c-.1.3-.3.6-.4 1-.1.3-.3.7-.4 1.1h-.8l-.3-.9c-.1-.3-.2-.7-.4-1l-.3-.9c-.1-.3-.2-.5-.3-.7H45c.1.4.3.9.4 1.3.1.4.3.9.4 1.3.3-.6.4-1 .6-1.4"/><path id="Fill-22" class="st0" d="M50.2 59.8c-.1-.2-.3-.4-.5-.4s-.4.1-.5.4c-.1.3-.2.7-.2 1.3v.6c0 .2.1.3.1.5.1.1.1.2.2.3.1.1.2.1.3.1.5 0 .7-.6.7-1.7 0-.6 0-.9-.1-1.1m-2.3.4c.1-.2.2-.5.4-.6.2-.2.4-.3.6-.4.2-.1.4-.1.7-.1.6 0 1 .2 1.3.5s.5.8.5 1.3c0 .3 0 .6-.1.8s-.2.4-.4.6c-.2.2-.4.3-.6.4-.2.1-.5.1-.7.1s-.4 0-.7-.1l-.6-.3c-.2-.1-.3-.3-.4-.6-.1-.2-.2-.5-.2-.8.1-.3.1-.6.2-.8"/><path id="Fill-24" class="st0" d="M56.7 58.6c0-.1-.1-.2-.2-.3-.1-.1-.2-.1-.3-.2-.1 0-.2-.1-.3-.1H55.6h-.1v2.1h.4c.1 0 .3-.1.4-.2l.3-.3c.1-.1.1-.3.1-.6.1-.1.1-.3 0-.4m-2.1 0v-1h1.6c.3 0 .6 0 .8.1s.4.1.5.2c.2.1.3.3.3.4.1.2.1.3.1.6s0 .5-.1.7-.2.4-.4.5l-.6.3c-.2.1-.5.1-.8.1h-.4v2.2h-1.2v-.9-2.1c.2-.4.2-.8.2-1.1"/><path id="Fill-26" class="st0" d="M60.2 61.1v-.3c-.1.1-.2.1-.3.1s-.2.1-.3.1c-.1.1-.2.1-.2.2-.1.1-.1.2-.1.4s0 .3.1.4c.1.1.2.1.3.1.2 0 .3-.1.4-.2.1-.1.2-.3.2-.6-.1.1-.1-.1-.1-.2m-1.1-1.9c.2-.1.5-.1.7-.1s.4 0 .5.1c.2 0 .3.1.4.2.1.1.2.2.3.4s.1.3.1.6v2c0 .1 0 .1.1.2l.1.1h.2v.2c-.1.1-.3.1-.4.1h-.3c-.2 0-.3 0-.4-.1-.1-.1-.2-.2-.3-.4-.1.2-.2.3-.4.4-.2.1-.3.1-.6.1-.2 0-.3 0-.5-.1-.1 0-.2-.1-.3-.2-.1-.1-.1-.2-.2-.3 0-.1-.1-.2-.1-.4s0-.3.1-.4c.1-.1.1-.2.2-.3.1-.1.2-.2.3-.2.1-.1.3-.1.5-.1.2-.1.4-.1.5-.1s.2-.1.3-.1.1-.1.1-.1v-.2c0-.2-.1-.3-.2-.5-.1-.1-.3-.2-.5-.2H59c-.1 0-.2.1-.3.1s-.2.1-.2.1c-.1 0-.1.1-.2.2h-.1l-.1-.4c.6-.4.8-.5 1-.6"/><path id="Fill-28" class="st0" d="M63.9 59.4v.2h-.7V61.9c0 .2 0 .3.1.4 0 .1.1.1.1.2h.4s.1 0 .1-.1v.3c-.1 0-.2.1-.4.1-.1 0-.3.1-.4.1-.6 0-.9-.4-.9-1.1v-.5-.6-.6-.5h-.5v-.2-.2h.5v-.4-.5c.2-.1.3-.1.5-.2s.3-.2.5-.2l.1.1v1.3l.6.1c0-.1 0-.1 0 0"/><path id="Fill-30" class="st0" d="M65.6 60.1c.1-.3.3-.6.5-.8s.4-.2.7-.2h.2V60.1l-.1.1s-.1-.1-.2-.1h-.2c-.2 0-.4.1-.5.2-.1.1-.2.3-.2.5v2h-1V62v-1.2-.9-.8H66l-.4 1z"/><path id="Fill-32" class="st0" d="M67.7 60v-.8h1.1v3.7h-1v-.8-1.2c-.1-.4-.1-.7-.1-.9m.1-2.7c.1-.1.3-.2.4-.2.2 0 .3.1.4.2.1.1.2.3.2.4 0 .2-.1.3-.2.4-.1.1-.3.2-.4.2-.2 0-.3-.1-.4-.2-.1-.1-.2-.3-.2-.4.1-.1.1-.2.2-.4"/><path id="Fill-34" class="st0" d="M71.6 61.1v-.3c-.1.1-.2.1-.3.1-.1 0-.2.1-.3.1-.1.1-.2.1-.2.2-.1.1-.1.2-.1.4s0 .3.1.4c.1.1.2.1.3.1.2 0 .3-.1.4-.2.1-.1.2-.3.2-.6-.1.1-.1-.1-.1-.2m-1.1-1.9c.2-.1.5-.1.7-.1s.4 0 .5.1c.2 0 .3.1.4.2.1.1.2.2.3.4.1.2.1.3.1.6v2c0 .1 0 .1.1.2l.1.1h.2v.2c-.1.1-.3.1-.4.1h-.3c-.2 0-.3 0-.4-.1s-.2-.2-.3-.4c-.1.2-.2.3-.4.4-.2.1-.3.1-.6.1-.2 0-.3 0-.5-.1-.1 0-.2-.1-.3-.2-.1-.1-.1-.2-.2-.3 0-.1-.1-.2-.1-.4s0-.3.1-.4c.1-.1.1-.2.2-.3s.2-.2.3-.2c.1-.1.3-.1.5-.1.2-.1.4-.1.5-.1s.2-.1.3-.1c.1 0 .1-.1.1-.1v-.2c0-.2-.1-.3-.2-.5-.1-.1-.3-.2-.5-.2h-.3c-.1 0-.2.1-.3.1s-.2.1-.2.1c.2-.1.1 0 .1 0h-.1l-.1-.4c.2-.2.5-.3.7-.4"/><g id="Group-38" transform="translate(0 36.111)"><path id="Fill-36" class="st0" d="M61.9 9c-.6.3-1.5.4-2.8.4h-.3c-.1 0-.2 0-.2-.1V3c.5-.2.9-.3 1.5-.3.8 0 1.4.2 1.9.5l.5.4c.2.2.4.4.5.6.4.5.5 1.1.6 1.8 0 .7-.2 1.3-.5 1.8-.3.6-.7.9-1.2 1.2zm-10.7 3h-6.9l3.6-7.2 3.3 7.2zM43 16.4c-.2-.3-.3-.6-.3-.9.1-.4.2-.7.4-1.1l.7-1.5.1-.1h7.8l.7 1.6c.2.5.4.9.5 1.3 0 .2-.1.4-.1.5-.1.1-.2.2-.4.3h7.2l.1-.1c-.2 0-.6-.2-.7-.3-.1-.1-.2-.2-.3-.4s-.1-.4-.1-.6V9.9l2.6-.1 5.4 6.7c.7.9 1.4 1.5 2 1.8s1.3.5 1.7.6h1.8v-.1c-.1-.1-.2-.1-.5-.1l-.4-.1c-.2 0-.3-.1-.5-.2s-.5-.3-.9-.6c-.8-.7-1.2-1.1-1.9-1.9h7.5c.2 0 .3-.1.4-.1.1-.1.2-.2.3-.4.1-.2.2-.4.3-.8 0-.1.1 0 .1 0l.2 2.3 3.7.3h.7l.7-.1c.7-.1 1.3-.4 1.8-1 .6-.5.9-1.1 1.1-1.8.1-.4.2-.9.2-1.3 0-.5-.1-1-.2-1.4-.2-.4-.4-.8-.7-1.2-1.5-1.1-2.9-2.2-4.4-3.3l-.8-.8c-.4-.3-.7-.6-.8-.9-.2-.4-.4-.9-.4-1.4s.1-1 .4-1.4.6-.7 1.1-1c.5-.2 1-.4 1.6-.4l.8.1c.5.1.9.3 1.4.7.4.4.8.8.9 1.2.1 0 .1-.1.2-.2V1.3c-.6-.2-1.1-.3-1.7-.4-.5-.1-1.1-.2-1.5-.2s-.8 0-1.2.1c-.4.1-.8.3-1.3.6s-.9.8-1.2 1.4c-.3.6-.4 1.3-.4 2 0 1.1.5 2.1 1.6 3l3.9 3c.3.3.6.6.9.8.2.3.4.6.6 1 .1.4.2.7.2 1.1 0 .4-.1.7-.2 1-.2.6-.6 1-1.1 1.4-.5.3-1.1.5-1.7.6-1 0-1.8-.1-2.5-.3-.7-.2-1.1-.5-1.2-.9l-.5-1.3s0-.1-.1-.1h-.1c-.1.2-.3.4-.4.6-.2.2-.4.3-.6.3l-1.5.3h-3.8l-.1-.1V9.3l3.2-.1c.5 0 .8.1 1 .2.2.1.3.3.3.5h.1v-2h-.1-.1c-.1.3-.4.5-.7.6l-1 .1h-2.7V3.1H73c.4 0 .6 0 .9.1.2.1.4.2.5.4l.1.1-.1-.7c0-.2-.1-.3-.2-.4-.1-.1-.1-.1-.2-.1h-.3l-5.9.1c0 .1.1.1.2.2l.4.2c.1.1.2.3.3.5.1.2.1.5.1.9v10.4l-.1.5c-.1.2-.2.3-.3.4-.1.1-.4.2-.6.3-.1-.1-.2-.2-.2-.3l-4.9-6.2c.8-.5 1.4-1 1.8-1.7.3-.7.5-1.3.5-1.9 0-.8-.2-1.6-.7-2.2l-.6-.6c-.2-.1-.5-.3-.8-.4-.3-.1-.7-.2-1.1-.3l-1.4-.1-4.2.1h-.1l.4.1c.3.1.5.3.6.5s.2.4.2.7V15c0 .4-.4 1.2-1.2 1.2s-1.4-.7-1.6-1L48.3 2.4l-.1-.1-6.3 12.5s-.9 1.3-2 1.5l.1.1h3zm-3.8-2.3c-.7.5-1.3.8-2 .9-.7.2-1.4.2-2.2.2l-1.5-.1-1.5-.3-.1-2.8V4.1l.1-1.4c.9-.2 1.9-.3 2.8-.3 1.1 0 2.1.1 3 .4.5.2 1 .5 1.4.8s.7.7.9 1.1.4.9.7 1.5c.1.5.3 1 .3 1.5.1.5.1 1 .1 1.5 0 1-.2 2-.5 2.8-.3 1-.8 1.6-1.5 2.1zm-28-2.9h-7v-.1l3.6-8.3 3.4 8.4zm31 .5c.3-.9.5-1.8.5-2.7 0-1.3-.3-2.6-.9-3.7-.6-1.2-1.5-2-2.6-2.5-1.2-.5-2.5-.8-4.1-.8H26.7l.6.3c.3.2.4.3.5.5l.1 1v9.7l-.1.1-9.6-10.4c-.1-.2-.2-.4-.2-.6v-.2l.1-.2c.1-.1.1-.1.1-.2h-3c0 .1.1.1.2.2.1 0 .3.1.6.3.2.1.4.3.5.5l-.2 12.1c0 .2-.3 1.1-.7 1.1-.3 0-.8-.8-.9-1.1L8.3 0l-.1-.1-6.4 14.6-.6.9c-.1.2-.3.3-.5.5-.2.1-.5.3-.8.5h-.1l.1.1H3c-.3-.3-.4-.7-.4-1.1.1-.4.2-.9.4-1.4l.7-1.7.1-.3h7.8l.7 1.8c.2.5.4 1 .5 1.5 0 .2 0 .5-.1.7-.1.2-.2.3-.4.4h5.9l.1-.1-.5-.2c-.1-.1-.3-.2-.4-.3s-.2-.2-.2-.4c-.1-.5-.1-1.3-.1-2.1l.2-9.3 11.2 12.4h.1L28.7 6V4.6c0-.3 0-.7.1-1 0-.3.1-.6.2-.9.1-.2.2-.3.3-.3.1-.1.3-.1.4-.1.2.1.3.2.5.2.1.1.3.2.3.3.1.2.2.4.2.6v1.8l-.1 9.4c0 .2-.2.4-.4.6-.2.2-.5.3-.7.4v.1l.7-.1h.7l3.4.1c1.4 0 2.5-.1 3.5-.4 1-.3 1.9-.7 2.6-1.4 1-.6 1.5-1.4 1.8-2.2z"/></g><path id="Fill-39" class="st0" d="M23.4 21.9v1.8l10 6.1h-10v1.7h15.8z"/><path id="Fill-41" class="st0" d="M31.3-.3v27l1.6 1V1.4h18.9v28.4H36.4l2.8 1.7h14.3V-.3z"/></g></g></g></svg>