<?xml version="1.0" encoding="utf-8"?>
<!-- Generator: Adobe Illustrator 26.0.2, SVG Export Plug-In . SVG Version: 6.00 Build 0)  -->
<svg version="1.1" id="Layer_1" xmlns="http://www.w3.org/2000/svg" xmlns:xlink="http://www.w3.org/1999/xlink" x="0px" y="0px"
	 viewBox="0 0 54.6 41.9" style="enable-background:new 0 0 54.6 41.9;" xml:space="preserve">
<style type="text/css">
	.st0{fill-rule:evenodd;clip-rule:evenodd;fill:#D0CECE;}
</style>
<path class="st0" d="M0.7,22.9c0.6,1.7,1.5,3.2,2.7,4.5c1.2,1.3,2.7,2.4,4.3,3.2c1.7,0.8,3.5,1.3,5.5,1.5l1.8,0.1
	c2.1,0,3.8-0.3,5.3-0.9c1.5-0.6,2.7-1.5,3.7-2.6c1-1.1,1.8-2.4,2.4-3.8c0.5-1.3,1-2.6,1.3-3.9c0-0.2,0.1-0.5,0.1-0.8
	c1.1-0.4,2.1-1,3.2-1.8c0.3,0.9,0.7,1.7,1.2,2.6c0.1,0.2,0.3,0.5,0.4,0.8c0.6,1.1,1.3,2.1,2.1,3.2l0.9,1.2c-0.5,1.6-0.9,3.2-1,4.8
	c-0.2,1.5-0.1,3,0.2,4.3c0.3,1.3,0.8,2.5,1.5,3.5c0.4,0.6,0.9,1,1.4,1.3c0.5,0.3,1,0.4,1.5,0.4c0.5,0,0.9-0.1,1.3-0.4
	c0.9-0.6,1.5-1.4,1.7-2.4c0.2-1,0.2-2.2-0.1-3.6c-0.3-1.4-0.9-2.9-1.6-4.5c-0.8-1.8-1.7-3.5-2.8-5.1l0-0.1l0.8-1.6
	c0.3-0.6,0.7-1.1,1.1-1.7c0.1-0.1,0.1-0.2,0.2-0.3c0.6-0.7,1.3-1.4,2.2-2.1c0.9-0.7,1.9-1.3,3.1-1.8c0.9-0.4,1.8-0.6,2.7-0.8
	l2.2-0.3H50c0.6,0,1.2,0.1,1.7,0.3c0.5,0.2,0.9,0.5,1.2,0.9c0.2,0.3,0.2,0.5,0.2,0.7L53.1,18c-0.1,0.1-0.1,0.1,0,0.2l0.1,0.1
	l0.4,0.1h0.1l0.5-0.1l0.3-0.3c0.1-0.1,0.1-0.3,0.1-0.5c0-0.2-0.1-0.4-0.2-0.6c-0.2-0.4-0.7-0.7-1.3-1c-0.6-0.3-1.4-0.5-2.2-0.5
	l-0.9,0c-1.1,0-2.2,0.2-3.1,0.4c-1,0.3-1.8,0.6-2.5,0.9c-0.6,0.3-1.1,0.6-1.7,1c-0.6,0.4-1.2,0.8-1.8,1.4c-0.7,0.6-1.3,1.3-2,2.1
	c0,0-0.1,0.1-0.1,0.1l-0.8,1.1c-0.3,0.4-0.6,0.9-0.9,1.4l-1.1-1.9c-0.1-0.2-0.2-0.4-0.4-0.7c-0.4-0.7-0.7-1.4-1-2.1
	c-0.5-1.1-0.9-2.2-1.2-3.4c0.4-0.7,0.8-1.5,1.1-2.2c0.3-0.8,0.5-1.5,0.7-2.2c0.2-0.7,0.2-1.3,0.3-1.9c0.1-0.8-0.1-1.6-0.5-2.2
	c-0.4-0.6-0.8-1-1.4-1.2c0.3-0.7,0.7-1.4,1.2-2.1l1.6-1.9c-1.8,1.2-3.3,2.5-4.2,4c-0.8,0.2-1.6,0.7-2.3,1.5
	c-0.7,0.8-1.3,1.8-1.9,2.9c-0.6,1.2-1.1,2.5-1.5,4c-0.5,1.6-0.9,3.1-1.2,4.7l-0.1,0l-1.1,0.2c0.2-0.5,0.4-1.1,0.6-1.8
	c0.2-0.7,0.3-1.4,0.3-2.1c0-1.8-0.3-3.4-1.1-4.9c-0.8-1.5-1.9-2.7-3.4-3.6c-1.5-0.9-3.2-1.5-5.1-1.7l-0.6,0c0.8-1,1.7-1.8,2.8-2.3
	c1.1-0.6,2.4-0.9,3.8-0.9l0.7,0c1.2,0.1,2.3,0.4,3.2,0.8c0.9,0.5,1.7,1.1,2.5,1.8c0.1,0,0.2-0.1,0.3-0.1l0.1-0.2
	C26.9,3.7,26,3,25,2.5c-1-0.5-2.1-0.8-3.4-0.9l-0.8,0c-1.5,0-2.8,0.3-4,1c-1.2,0.6-2.3,1.5-3.3,2.7c-1.8,0.1-3.6,0.4-5.2,1
	C6.8,7,5.4,7.8,4.2,8.9C3,10,2,11.2,1.3,12.7c-0.7,1.4-1.2,3-1.3,4.7c-0.1,1.2,0,2.4,0.2,3.6C0.4,21.6,0.5,22.3,0.7,22.9z
	 M36.1,26.8l1.7,2.5c0.6,1,1.1,2,1.7,3c0.5,1,0.9,2,1.3,3c0.3,1,0.4,1.8,0.3,2.6c-0.1,0.8-0.4,1.3-1,1.8l-0.7,0.2
	c-0.4,0-0.8-0.2-1.1-0.4c-0.4-0.3-0.8-0.6-1.1-1c-1.1-1.4-1.7-3.1-1.8-5.1C35.2,31.3,35.4,29.2,36.1,26.8L36.1,26.8z M32.4,9.9
	c0.1-1.2,0.3-2.4,0.7-3.6c0.3,0,0.5,0.2,0.8,0.5c0.2,0.3,0.4,0.6,0.4,1.1c0.1,0.4,0.1,0.8,0.1,1.2c-0.1,0.7-0.3,1.5-0.6,2.3
	c-0.3,0.8-0.7,1.6-1.1,2.3C32.5,12.3,32.4,11.1,32.4,9.9z M28.1,15.4c0.1-0.9,0.2-1.9,0.5-3c0.2-1,0.5-2,0.9-2.9
	c0.4-0.9,0.9-1.7,1.6-2.3c-0.7,1.4-1.1,2.8-1.2,4.3c-0.1,1.5,0,3,0.4,4.5c-0.7,0.6-1.5,1.2-2.3,1.7l-0.1,0L28.1,15.4z M14,5.9l0.3,0
	l0.6,0c1.4,0.2,2.7,0.5,3.8,1c1,0.5,1.9,1.1,2.7,1.9c0.7,0.8,1.3,1.6,1.7,2.5c0.4,0.9,0.7,1.8,0.8,2.7c0.1,0.7,0.1,1.5,0,2.2
	c-0.1,0.7-0.2,1.3-0.4,1.9c-0.2,0.6-0.4,1-0.5,1.3l-0.8,0.1l-1.5-0.1c-1.3-0.1-2.5-0.5-3.5-1.1c-1-0.6-1.9-1.4-2.6-2.3
	c-0.7-1-1.2-2-1.5-3.1c-0.3-1.1-0.4-2.3-0.4-3.5c0-0.6,0.2-1.2,0.4-1.8C13.4,7,13.6,6.5,14,5.9z M0.9,17.8c0.1-1.5,0.5-3,1.1-4.3
	c0.6-1.4,1.5-2.6,2.6-3.7c1.1-1.1,2.3-1.9,3.8-2.6c1.4-0.7,3-1.1,4.8-1.3c-0.5,1-0.9,2.1-1,3.3c-0.1,1.2,0,2.5,0.3,3.8
	c0.4,1.3,0.9,2.5,1.7,3.6c0.8,1.1,1.9,2,3.1,2.8c1.3,0.7,2.8,1.1,4.5,1.2l0.5,0.1c0,0.1-0.1,0.1-0.2,0.2c-0.4,0.6-1,1.2-1.6,1.6
	c-0.7,0.5-1.5,1-2.5,1.3c-0.9,0.3-2,0.5-3.2,0.5l-1-0.1c-1.2-0.1-2.3-0.5-3.3-1.1C9.7,22.6,9,21.9,8.5,21c0-0.1-0.1-0.1-0.1-0.2
	c-0.5-1-0.8-2-0.7-3.2l0.1-0.9l0.3-0.8c-0.1-0.1-0.2-0.2-0.2-0.2l-0.3,0c-0.2,0.6-0.4,1.2-0.5,1.9C7.1,18.8,7.3,20,7.8,21
	c0,0.1,0.1,0.2,0.1,0.3c0.6,1.1,1.5,1.9,2.6,2.6c1.1,0.7,2.3,1,3.7,1.2l1.1,0c1.8,0,3.3-0.4,4.6-1.1c1.2-0.7,2.2-1.7,2.9-3
	c0-0.1,0-0.1,0.1-0.1l1.1,0.1l0.4,0c0,0,0,0.1,0,0.1c-0.5,1.6-1,3.1-1.6,4.4c-0.6,1.3-1.3,2.4-2.2,3.3c-0.8,0.9-1.8,1.6-3,2
	c-1.2,0.5-2.5,0.7-4,0.7l-1.4-0.1c-1.7-0.1-3.3-0.6-4.7-1.4c-1.4-0.8-2.7-1.8-3.7-3c-1.1-1.2-1.9-2.6-2.4-4.2
	C1.3,22.2,1.1,21.6,1,21C0.8,19.9,0.8,18.9,0.9,17.8z"/>
<g>
</g>
<g>
</g>
<g>
</g>
<g>
</g>
<g>
</g>
<g>
</g>
</svg>
