<?xml version="1.0" encoding="utf-8"?>
<!-- Generator: Adobe Illustrator 26.0.2, SVG Export Plug-In . SVG Version: 6.00 Build 0)  -->
<svg version="1.1" id="Layer_1" xmlns="http://www.w3.org/2000/svg" xmlns:xlink="http://www.w3.org/1999/xlink" x="0px" y="0px"
	 viewBox="0 0 157.2 155.1" style="enable-background:new 0 0 157.2 155.1;" xml:space="preserve">
<style type="text/css">
	.st0{fill:#435363;}
</style>
<g>
	<g>
		<g>
			<g>
				<path class="st0" d="M77.9,78c2.6-3.8,5-7.5,7.5-11.2C90,60,94.6,53.1,99.3,46.3c0.2-0.3,0.7-0.7,1.1-0.7c1.8-0.1,3.6,0,5.8,0
					C96.9,59.4,87.8,73,78.5,86.7C70.4,77.5,62.3,68.4,54,59c0,14.5,0,28.6,0.1,42.8c-1.8,0-3.5,0-5.3,0c0-18.9,0-37.7-0.1-57
					C58.5,56,68.1,67,77.9,78z"/>
			</g>
			<g>
				<path class="st0" d="M110.4,101.8c-1.7,0-3.4,0-5.2,0c0-12.7,0-25.4,0-38.1c-0.1,0-0.2-0.1-0.3-0.1c-0.9,1.4-1.9,2.7-2.8,4.1
					c-7.5,11.1-14.9,22.2-22.3,33.3c-0.5,0.7-0.9,1-1.8,1c-1.7-0.1-3.3,0-5.3,0c12.6-18.7,25-37.2,37.6-56
					C110.4,64.7,110.4,83.2,110.4,101.8z"/>
			</g>
			<g>
				<path class="st0" d="M8.6,53.9c2.8,0.7,5.5,1.4,8.3,2c-0.1,0.6-0.3,1.2-0.4,1.8c-1.8-0.4-3.5-0.8-5.2-1.2c0,0.1-0.1,0.1-0.1,0.2
					c1.3,0.9,2.5,1.8,3.8,2.7c0.3,0.3,0.6,0.7,0.9,1c-0.4,0.2-0.8,0.5-1.3,0.6c-1.5,0.2-3.1,0.4-4.7,0.8c1.7,0.4,3.4,0.9,5.3,1.4
					c-0.2,0.6-0.3,1.1-0.4,1.8c-2.8-0.7-5.5-1.4-8.3-2c0.6-3.1,0.2-2.5,2.8-2.8c1-0.1,2-0.3,3.3-0.5c-1.3-0.9-2.2-1.7-3.3-2.3
					C8,56.7,7.8,56,8.3,54.8C8.4,54.6,8.5,54.3,8.6,53.9z"/>
			</g>
			<g>
				<path class="st0" d="M12.5,93.2c-1.7,0.4-3.4,0.8-5.1,1.2c-0.2-0.6-0.3-1.1-0.5-1.8c2.8-0.7,5.5-1.4,8.1-2
					c1.1,1.9,1,2.4-0.7,3.5c-1,0.7-1.9,1.4-3.1,2.2c1.4,0.2,2.5,0.4,3.6,0.5c2.2,0.3,2.4,0.4,2.4,2.8c-2.7,0.7-5.3,1.3-8.2,2
					c-0.2-0.6-0.3-1.1-0.5-1.8c1.8-0.5,3.4-0.9,5.1-1.3c0-0.1,0-0.2,0-0.3c-1.6-0.2-3.2-0.4-4.8-0.7c-0.3-0.1-0.6-0.3-0.9-0.5
					c0.2-0.3,0.3-0.7,0.6-0.9c1.3-1,2.6-1.9,4-2.8C12.5,93.4,12.5,93.3,12.5,93.2z"/>
			</g>
			<g>
				<path class="st0" d="M99.9,15.3c1.2-2.7,2.3-5.3,3.4-7.8c1.2,0.2,2,0.7,2.1,1.9c0.2,1.6,0.7,3.1,1.3,4.7
					c0.6-1.4,1.2-2.8,1.9-4.4c0.5,0.2,1.1,0.4,1.7,0.7c-1.1,2.6-2.2,5.2-3.4,7.8c-1.2-0.1-1.8-0.6-2-1.7c-0.3-1.7-0.8-3.4-1.3-5.5
					c-0.8,1.8-1.5,3.4-2.2,5C101,15.8,100.5,15.6,99.9,15.3z"/>
			</g>
			<g>
				<path class="st0" d="M102.3,148.1c-1.1-2.7-2.2-5.2-3.2-7.8c0.9-0.7,1.7-1,2.8-0.2c1.4,0.9,2.8,1.7,4.6,2.8
					c-0.7-1.8-1.3-3.2-2-4.8c0.5-0.2,1.1-0.5,1.7-0.7c1.1,2.7,2.2,5.2,3.2,7.8c-0.9,0.7-1.7,0.8-2.7,0.1c-1.4-1-2.9-1.8-4.7-2.9
					c0.8,1.9,1.4,3.4,2.1,5.1C103.5,147.6,103,147.8,102.3,148.1z"/>
			</g>
			<g>
				<path class="st0" d="M50.3,146.6c1-2.8,1.9-5.4,2.9-8.1c1.4,0.5,2.6,0.9,3.8,1.4c2.1,1,3,3.1,2.2,5.2c-0.7,2.2-2.7,3.3-5,2.8
					C53,147.7,51.7,147.1,50.3,146.6z M52.7,145.6c1.3,0.6,2.6,1.2,3.9,0.2c0.9-0.7,1.3-1.6,1.1-2.7c-0.3-1.7-1.7-2-3.2-2.4
					C53.8,142.4,53.3,144,52.7,145.6z"/>
			</g>
			<g>
				<path class="st0" d="M53.4,16.6c-0.9-2.6-1.8-5-2.6-7.5c-0.1-0.2,0.2-0.8,0.4-0.9c1.1-0.4,2.2-0.9,3.4-1.1
					c2.3-0.5,4.2,0.6,4.9,2.8c0.7,2.2-0.1,4.3-2.2,5.3C56,15.7,54.8,16,53.4,16.6z M54.5,14.3c1.6-0.4,3-0.8,3.3-2.6
					c0.2-1.1-0.3-2.1-1.2-2.7c-1.3-0.8-2.5-0.2-3.7,0.4C53.4,11.1,54,12.7,54.5,14.3z"/>
			</g>
			<g>
				<path class="st0" d="M115.9,141.7c-1.7-2.4-3.2-4.7-4.9-7.2c1.4-0.8,2.6-1.8,4-2.4c2-0.9,4.1-0.2,5.2,1.8c1.1,1.8,0.8,4-0.9,5.4
					C118.2,140.1,117.1,140.8,115.9,141.7z M116.4,139.2c1.3-0.8,2.6-1.5,2.4-3.2c-0.1-1.1-0.7-2-1.9-2.4c-1.5-0.5-2.4,0.5-3.5,1.3
					C114.5,136.3,115.4,137.7,116.4,139.2z"/>
			</g>
			<g>
				<path class="st0" d="M116.9,14.1c1.2,0.8,2.2,1.5,3.2,2.3c1.9,1.5,2.2,3.8,0.9,5.7c-1.3,1.9-3.6,2.5-5.7,1.3
					c-1.1-0.6-2.2-1.4-3.4-2.3C113.6,18.8,115.2,16.5,116.9,14.1z M114.4,20.9c1.3,0.8,2.3,1.9,3.9,1.1c1-0.5,1.6-1.4,1.6-2.6
					c0-1.5-1.3-2.1-2.4-2.9C116.4,18,115.4,19.4,114.4,20.9z"/>
			</g>
			<g>
				<path class="st0" d="M25,34.5c1.2,0.1,2.3,0.3,3.4,0.4c-0.6,1.6-0.8,1.7-2.5,1.5c-0.9-0.1-2.1-0.8-2.6,0.8
					c0.7,0.5,1.5,1.1,2.3,1.8c-0.4,0.5-0.7,0.9-1.1,1.5c-2.3-1.7-4.6-3.4-6.9-5.1c1-1.3,1.9-2.6,2.9-3.7c0.8-0.9,1.9-1,2.9-0.5
					C24.6,31.6,25.1,32.6,25,34.5z M21.8,36.2c0.5-0.7,1-1.1,1.2-1.7c0.1-0.4,0-1.2-0.3-1.4c-0.3-0.2-1.1-0.1-1.4,0.1
					c-0.5,0.4-0.8,1.1-1.3,1.7C20.6,35.3,21.1,35.7,21.8,36.2z"/>
			</g>
			<g>
				<path class="st0" d="M137.9,34c0.8,1.3,1.5,2.4,2.2,3.5c0.7,1.2,0.6,2.4-0.2,3.3c-0.8,0.9-2,1.2-3.3,0.7
					c-0.1-0.1-0.3-0.1-0.6-0.2c-0.5,1-1,2-1.6,3c-1.4-1.2-1.3-1.4-0.6-2.9c0.4-0.8,1.5-1.7,0.2-2.7c-0.8,0.5-1.6,1-2.4,1.5
					c-0.3-0.5-0.7-1-1.1-1.5C133,37.1,135.4,35.6,137.9,34z M135.4,37.8c0.8,0.8,1.5,1.5,2.3,2c0.1,0.1,1-0.5,0.9-0.6
					c-0.2-0.9-0.6-1.8-1-2.8C136.8,36.9,136.2,37.3,135.4,37.8z"/>
			</g>
			<g>
				<path class="st0" d="M137.8,120.7c-0.3,0.5-0.6,1-1,1.5c-2.4-1.6-4.8-3.2-7.2-4.7c0.8-1.2,1.5-2.3,2.3-3.4
					c0.8-1.2,1.9-1.6,3.1-1.3c1.3,0.4,2,1.3,2,2.9c0,0.1,0,0.2,0.1,0.5c1.1,0.1,2.2,0.1,3.5,0.2c-0.5,1.1-0.9,2-2.4,1.7
					c-0.9-0.2-2.2-0.7-2.8,0.9C136.2,119.6,137,120.1,137.8,120.7z M133.9,118.1c0.4-0.6,0.9-1.1,1.1-1.7c0.1-0.4,0-1.2-0.3-1.4
					c-0.3-0.2-1.1-0.1-1.4,0.2c-0.5,0.4-0.8,1.1-1.2,1.7C132.7,117.3,133.3,117.6,133.9,118.1z"/>
			</g>
			<g>
				<path class="st0" d="M23.5,122.2c-0.5,1.1-1,2.1-1.5,3.2c-1-0.9-1.5-1.7-0.7-3c0.5-0.7,1.4-1.7,0-2.7c-0.7,0.5-1.5,1-2.4,1.6
					c-0.3-0.4-0.7-0.8-1.1-1.4c2.3-1.7,4.6-3.4,7-5.1c0.8,1.1,1.5,2,2.2,3c1,1.5,1.1,2.6,0.3,3.7C26.5,122.6,25.4,122.8,23.5,122.2z
					 M22.8,118.6c0.4,0.6,0.7,1.1,1.1,1.5c0.4,0.5,1,0.9,1.6,0.4c0.6-0.5,0.6-1.1,0.2-1.7c-0.3-0.5-0.7-0.9-1.1-1.5
					C24,117.8,23.5,118.2,22.8,118.6z"/>
			</g>
			<g>
				<path class="st0" d="M69.4,12.4c-2.6,0-4.4-1.9-4.4-4.5c0-2.5,2-4.4,4.6-4.4c2.6,0,4.4,2,4.4,4.6C74,10.6,72.1,12.4,69.4,12.4z
					 M72.1,8c0-1.6-1.1-2.9-2.5-2.9c-1.4,0-2.6,1.1-2.7,2.6c0,1.6,1.1,2.9,2.6,2.9C71.1,10.7,72.1,9.6,72.1,8z"/>
			</g>
			<g>
				<path class="st0" d="M69.2,151.6c-2.6,0-4.5-1.8-4.5-4.3c0-2.6,1.9-4.6,4.5-4.5c2.6,0,4.5,1.9,4.6,4.4
					C73.7,149.7,71.8,151.6,69.2,151.6z M66.6,147.3c0,1.5,1.1,2.7,2.6,2.7c1.4,0,2.6-1.3,2.6-2.9c0-1.5-1.1-2.7-2.6-2.7
					C67.7,144.4,66.6,145.6,66.6,147.3z"/>
			</g>
			<g>
				<path class="st0" d="M132.9,127.3c-0.8,0.8-1.2,1.9-2.5,1.1c-0.2-0.1-0.6,0.1-0.8,0.3c-0.5,0.4-0.9,1-1.4,1.4
					c-0.5,0.4-0.7,0.8-0.3,1.5c0.6,1.2-0.8,1.3-1.1,2.3c-1.3-2.9-2.4-5.4-3.6-8c-0.4-0.9,0.3-1.2,0.7-1.5c0.3-0.3,0.9-0.6,1.3-0.4
					C127.6,124.9,130.1,126.1,132.9,127.3z M126.7,129.2c0.6-0.7,1.2-1.2,1.8-1.9c-1.2-0.5-2.1-1-3.4-1.5
					C125.6,127.1,126.1,128,126.7,129.2z"/>
			</g>
			<g>
				<path class="st0" d="M44.6,143.9c-1-0.5-2-0.7-1.7-2c0.1-0.2-0.2-0.6-0.5-0.8c-0.6-0.4-1.3-0.8-1.9-1.2
					c-0.2-0.1-0.7-0.2-0.8-0.1c-1,1.1-1.7,0.2-2.7-0.4c1.6-1.3,3.1-2.5,4.6-3.6c0.5-0.4,1-0.7,1.4-1.1c1.2-0.9,1.7-0.9,2.7,0.1
					c0.2,0.2,0.3,0.7,0.2,1C45.6,138.4,45.1,141,44.6,143.9z M41.2,138.3c0.8,0.5,1.4,0.9,2.2,1.3c0.2-1.2,0.4-2.3,0.7-3.7
					C43.1,136.9,42.2,137.5,41.2,138.3z"/>
			</g>
			<g>
				<path class="st0" d="M41.3,23.1c-0.4-2.2-0.8-4.3-1.2-6.3c-0.1-0.4-0.1-0.9-0.2-1.3c-0.4-1.2,0.1-1.9,1.2-2.3
					c0.3-0.1,0.8-0.1,1,0.1c2.2,1.7,4.4,3.4,6.7,5.2c-0.9,0.7-1.5,1.6-2.6,0.5c-0.1-0.1-0.5-0.1-0.7,0c-0.7,0.4-1.4,0.8-2.1,1.3
					c-0.2,0.1-0.5,0.5-0.4,0.6C43.5,22.2,42.3,22.5,41.3,23.1z M41.7,15.1c0.3,1.4,0.5,2.5,0.8,3.7c0.8-0.5,1.4-0.9,2.2-1.3
					C43.6,16.7,42.8,16,41.7,15.1z"/>
			</g>
			<g>
				<path class="st0" d="M95.3,13.8c-1.1-0.2-2.2,0.1-2.2-1.4c0-0.2-0.4-0.5-0.6-0.6c-0.8-0.2-1.6-0.4-2.4-0.5
					c-0.2,0-0.7,0.1-0.7,0.2c-0.6,1.3-1.6,0.8-2.7,0.5c0.6-1,1.2-1.9,1.7-2.8C89.1,8,90,6.8,90.7,5.5c0.5-1,1.2-1.2,2.2-0.9
					c0.6,0.2,0.9,0.3,1,0.9C94.3,8.2,94.8,10.9,95.3,13.8z M92.3,6.9c-0.1,0-0.2-0.1-0.3-0.1c-0.6,0.9-1.1,1.8-1.8,2.9
					c0.9,0.2,1.6,0.3,2.5,0.5C92.6,9,92.5,7.9,92.3,6.9z"/>
			</g>
			<g>
				<path class="st0" d="M121.5,28.3c2.8-1.2,5.5-2.3,8.1-3.4c0.2-0.1,0.7,0.2,1,0.4c0.3,0.3,0.6,0.6,1,1c-1.3,2.7-2.6,5.4-3.9,8.3
					c-0.7-0.8-1.9-1.2-1-2.5c0.1-0.1,0-0.6-0.1-0.7c-0.6-0.7-1.2-1.3-1.9-2c-0.1-0.1-0.5-0.2-0.6-0.1
					C122.8,30.2,122.4,29.1,121.5,28.3z M127.8,30.3c0.5-1.1,1-2,1.7-3.3c-1.3,0.6-2.3,1-3.4,1.5C126.7,29.1,127.2,29.6,127.8,30.3z
					"/>
			</g>
			<g>
				<path class="st0" d="M96,149.9c-0.8,0.2-1.7,0.9-2.4-0.4c-0.1-0.2-0.5-0.4-0.8-0.3c-0.9,0.1-1.7,0.3-2.6,0.5
					c-0.2,0.1-0.5,0.3-0.5,0.5c-0.1,1.4-1.2,1.2-2.2,1.4c0.3-1.6,0.5-3.1,0.8-4.5c0.2-1.3,0.5-2.6,0.7-3.9c0.1-1,0.9-0.7,1.5-0.8
					c0.4-0.1,1,0.1,1.2,0.3c1.5,2.3,2.9,4.6,4.3,7C96,149.7,96,149.8,96,149.9z M92.5,147.5c-0.7-1.1-1.2-2-2-3.2
					c-0.2,1.4-0.4,2.5-0.6,3.7C90.9,147.8,91.7,147.6,92.5,147.5z"/>
			</g>
			<g>
				<path class="st0" d="M19.5,104.8c0.9,1.9,1.7,3.6,2.6,5.4c-0.5,0.3-0.9,0.5-1.4,0.8c-0.6-1.2-1.2-2.4-1.9-3.7
					c-0.5,0.2-1,0.5-1.6,0.7c0.6,1.3,1.2,2.4,1.8,3.7c-0.5,0.3-0.9,0.5-1.4,0.8c-0.6-1.2-1.2-2.4-1.9-3.7c-0.5,0.2-1,0.5-1.6,0.8
					c0.6,1.3,1.1,2.5,1.7,3.8c-0.4,0.2-0.9,0.4-1.4,0.7c-0.9-1.8-1.7-3.6-2.7-5.5C14.3,107.3,16.8,106.1,19.5,104.8z"/>
			</g>
			<g>
				<path class="st0" d="M138.1,106c0.6,0.2,1,0.4,1.6,0.7c0.5-1.2,1-2.4,1.6-3.8c0.5,0.2,0.9,0.4,1.5,0.6c-0.5,1.3-1,2.5-1.5,3.8
					c0.6,0.3,1.1,0.5,1.7,0.8c0.6-1.3,1.1-2.5,1.7-3.9c0.5,0.2,1,0.4,1.5,0.6c-0.8,1.9-1.5,3.7-2.3,5.6c-2.6-1.1-5.2-2.2-7.9-3.3
					c0.8-1.9,1.5-3.7,2.4-5.6c0.5,0.2,1,0.4,1.5,0.7C139.2,103.5,138.7,104.7,138.1,106z"/>
			</g>
			<g>
				<path class="st0" d="M143.9,48.5c-0.5,0.2-1,0.4-1.6,0.6c0.5,1.3,1,2.5,1.5,3.8c-0.5,0.2-0.9,0.4-1.5,0.7
					c-0.3-0.8-0.6-1.6-0.9-2.3c-0.6-1.6-0.6-1.6-2.3-0.8c0.5,1.2,0.9,2.5,1.5,3.8c-0.5,0.2-0.9,0.4-1.5,0.7
					c-0.8-1.9-1.5-3.7-2.3-5.7c2.7-1.1,5.3-2.1,8-3.2c0.8,1.9,1.5,3.7,2.2,5.6c-0.5,0.2-0.9,0.4-1.5,0.6
					C145,51.1,144.5,49.9,143.9,48.5z"/>
			</g>
			<g>
				<path class="st0" d="M16.9,42.9c0.5,0.3,1,0.5,1.5,0.7c-0.6,1.3-1.2,2.5-1.8,3.7c0.6,0.3,1.1,0.5,1.7,0.8
					c0.6-1.2,1.2-2.4,1.9-3.8c0.5,0.2,0.9,0.4,1.5,0.7c-0.9,1.9-1.8,3.7-2.6,5.5c-1.3-0.6-2.6-1.2-3.8-1.9c-1.2-0.6-2.5-1.2-3.9-1.9
					c0.9-1.8,1.7-3.6,2.6-5.5c0.5,0.2,0.9,0.4,1.5,0.7c-0.6,1.3-1.2,2.5-1.8,3.8c0.6,0.3,1,0.5,1.6,0.7
					C15.7,45.4,16.3,44.2,16.9,42.9z"/>
			</g>
			<g>
				<path class="st0" d="M141.8,59.5c0.4,0.2,0.9,0.4,1.2,0.5c-0.1,1.1-0.3,2.1-0.2,3c0,0.4,0.7,0.8,1,1.2c0.2-0.4,0.6-0.8,0.7-1.2
					c0.1-0.6,0.1-1.3,0.1-1.9c0.1-1.4,0.8-2.2,1.9-2.4c1.1-0.2,2.2,0.4,2.8,1.5c0.8,1.5,0.8,3.1-0.1,4.7c-0.5-0.2-1-0.4-1.2-0.6
					c0-1.1,0.1-2,0-3c0-0.3-0.6-0.5-0.8-0.8c-0.2,0.3-0.5,0.6-0.6,0.9c-0.1,0.8-0.1,1.6-0.2,2.4c-0.2,1.1-0.7,1.9-1.9,2.2
					c-1.1,0.2-2.2-0.2-2.8-1.3C140.6,63.2,140.7,60.9,141.8,59.5z"/>
			</g>
			<g>
				<path class="st0" d="M143.1,91.6c-0.5,1-0.9,1.7-1.2,2.6c-0.1,0.3,0.3,0.7,0.4,1.1c0.3-0.2,0.8-0.3,1-0.6
					c0.4-0.6,0.7-1.4,1.2-2.1c0.6-1,1.5-1.5,2.7-1.2c1.2,0.3,1.9,1.2,2,2.5c0,1.9-0.6,3.5-2.2,4.7c-0.4-0.4-0.8-0.8-1-1.1
					c0.5-0.9,1.1-1.7,1.4-2.5c0.1-0.5-0.3-1.1-0.4-1.7c-0.4,0.3-0.9,0.6-1.2,1c-0.4,0.6-0.7,1.3-1.1,2c-0.6,0.9-1.5,1.3-2.6,1
					c-1-0.3-1.7-1.1-1.7-2.2c-0.1-1.8,0.4-3.3,1.9-4.5C142.5,90.9,142.9,91.2,143.1,91.6z"/>
			</g>
			<g>
				<path class="st0" d="M36.5,24.3c0.6,1.8-0.2,3.4-1.9,4.5c-1.8,1.1-4,0.9-5.5-0.6c-1.6-1.6-1.8-3.6-0.7-5.4
					c1.1-1.9,2.9-2.6,4.9-1.9c-0.2,0.9-0.3,1.6-1.6,1.6c-1.2-0.1-2.1,1.2-2.1,2.5c0,1.4,1.4,2.8,2.7,2.8c1.3,0,2.5-0.8,2.5-2
					C34.9,24.4,35.7,24.4,36.5,24.3z"/>
			</g>
			<g>
				<path class="st0" d="M36.8,131c-0.9-0.2-1.6-0.2-1.7-1.4c-0.1-1.3-1.4-2.1-2.7-2c-1.4,0.2-2.6,1.6-2.6,3c0,1.3,1,2.4,2.3,2.4
					c1.2-0.1,1.1,0.7,1.4,1.4c-1.5,0.8-3.2,0.3-4.5-1.2c-1.3-1.6-1.4-3.8-0.1-5.5c1.3-1.7,3.5-2.2,5.3-1.4
					C36.3,127.1,37.2,128.8,36.8,131z"/>
			</g>
			<g>
				<path class="st0" d="M16.9,77c0,0.5,0,0.9,0,1.3c-4.4,0-8.8,0-13.3,0c0-0.4,0-0.8-0.1-1.3C8,77.1,12.4,77.1,16.9,77z"/>
			</g>
			<g>
				<path class="st0" d="M153.7,76.8c0,0.5,0,0.9,0,1.4c-4.4,0-8.8,0-13.3,0c0-0.5,0-0.9,0-1.4C144.8,76.9,149.2,76.9,153.7,76.8z"
					/>
			</g>
		</g>
	</g>
</g>
<g>
</g>
<g>
</g>
<g>
</g>
<g>
</g>
<g>
</g>
<g>
</g>
</svg>
